<?xml version="1.0" encoding="UTF-8"?><svg id="Layer_1" xmlns="http://www.w3.org/2000/svg" viewBox="0 0 1024.34 239.03"><defs><style>.cls-1{fill:#221f20;}</style></defs><path class="cls-1" d="M0,135.48C0,96.1,34.14,33.32,107.11,33.32c14.05,0,25.34,2.76,33.88,8.25l-17.36,41.33h-8.81c-5.79-18.75-20.65-35.25-39.11-35.25-11.01,6.59-28.36,26.44-28.36,57s15.98,36.89,30.29,36.89c11.57,0,25.34-5.22,38.01-22.58l7.98,5.79c-13.49,25.61-38.56,55.63-76.83,55.63-26.16,0-46.81-14.04-46.81-44.89Z"/><path class="cls-1" d="M134.51,163.01c0-4.39,1.1-9.62,3.03-15.7l26.72-81.78c1.37-4.13.27-6.05-4.69-6.05h-14.05l3.59-12.67,61.4-13.5,7.71,6.88-29.74,94.44c-1.38,4.15-.27,6.35,2.48,6.35,6.61,0,26.72-20.65,42.96-43.79l15.98-60.59h47.91l-26.44,99.15c-.82,3.3-.27,5.22,2.76,5.22,3.31,0,10.46-3.59,20.65-22.31l8.81,5.22c-12.94,30.58-40.75,56.46-66.09,56.46-9.91,0-19.82-3.86-19.82-21.48,0-15.96,14.87-36.61,26.43-53.4l-4.94-3.33c-30.84,44.06-55.91,78.21-85.64,78.21-12.4,0-19-5.79-19-17.36Z"/><path class="cls-1" d="M412.81,84.26c0-8.54-1.65-11.57-5.24-11.57-6.33,0-14.6,9.37-42.4,45.99l-10.74,40.47c5.5,6.91,12.94,8.54,20.92,8.54,17.9-8.81,37.46-53.7,37.46-83.44ZM269.05,225.26c14.6-1.1,20.66-4.96,23.41-15.14l38.28-142.65c1.66-5.52,1.11-7.98-5.77-7.98h-11.85l3.31-12.4,62.51-13.77,7.43,6.88-8.26,29.73c-5.24,15.7-15.15,26.17-23.96,37.74l4.96,3.3c44.61-64.98,67.75-77.65,85.92-77.65,15.42,0,20.37,11.01,20.37,27.54,0,59.22-63.61,118.41-101.34,118.41-6.88,0-11.84-1.93-14.04-3.59l-7.99,30.58c-3.86,14.57,1.66,17.89,17.07,18.99l-3.58,13.77h-90.05l3.58-13.77Z"/><path class="cls-1" d="M637.39,123.91c-19.55,41.03-44.6,56.46-64.98,56.46-9.64,0-21.21-4.96-21.21-20.09,0-11.57,6.08-28.36,12.96-46.28,5.49-14.31,11.84-31.93,11.84-37.18,0-3.03-2.22-4.13-4.42-4.13-9.35,0-26.17,19.55-45.99,46.26l-15.7,58.12h-49.02l29.46-108.5c1.66-5.79,1.66-9.08-5.5-9.08h-12.12l3.31-12.4,62.5-13.77,7.44,6.88-9.08,33.05c-2.49,8.81-12.26,22.31-23,36.91l5.36,3.3c23.69-34.71,54.81-80.14,89.77-80.14,11.3,0,22.31,4.69,22.31,18.45,0,10.45-6.05,27.27-13.21,45.99-5.79,15.14-12.67,35.79-12.67,40.47,0,1.66.83,2.76,3.03,2.76,3.03,0,9.08-2.2,20.38-22.31l8.52,5.22Z"/><path class="cls-1" d="M640.73,133.84c0-46.55,40.47-100.52,98.03-100.52,26.44,0,55.9,11.57,55.9,46.53,0,46.55-40.47,100.52-98.03,100.52-26.44,0-55.9-11.57-55.9-46.53ZM746.48,64.15c0-14.04-4.69-19.26-12.96-19.26-27.54,0-44.6,73.79-44.6,104.65,0,14.04,4.69,19.26,12.94,19.26,27.54,0,44.62-73.79,44.62-104.65Z"/><path class="cls-1" d="M845.63,134.11c-1.93,6.05-.27,7.15,2.2,7.15,4.42,0,14.89-7.15,26.17-25.34l9.37,5.25c-20.38,41.84-49.31,59.2-70.23,59.2-12.94,0-20.65-9.08-20.65-21.21,0-6.32,1.37-13.48,3.59-20.36l27.24-88.41h-16.53l3.86-13.77h17.09l7.71-25.05,45.99-11.57,5.22,4.96-10.18,31.66h25.61l-3.86,13.77h-25.9l-26.71,83.73Z"/><path class="cls-1" d="M1006.72,118.41l8.54,5.79c-20.11,38.54-51.51,56.17-79.31,56.17-21.48,0-48.19-10.74-48.19-46.26,0-38.54,38.28-100.79,103.82-100.79,18.16,0,32.76,5.79,32.76,19.28,0,31.39-45.99,50.11-88.95,58.93,2.22,19.82,14.6,30,31.95,30,16.26,0,27.8-6.32,39.37-23.12ZM935.12,101.06c29.19-3.86,40.2-20.09,40.2-35.25,0-11.57-4.96-19.55-10.74-19.55-8.52,4.96-27.54,23.14-29.46,54.8Z"/></svg>